<svg width="199" height="108" viewBox="0 0 199 108" fill="none" xmlns="http://www.w3.org/2000/svg">
<path d="M147 11C108.727 11 71.6669 12.2176 35.3889 25.9444C24.4041 30.1009 3.96654 36.9188 2.22222 51.2222C1.76801 54.9468 2.34367 58.6671 4.77778 61.6667C14.1088 73.1655 30.1964 81.134 43.2778 87.1667C60.7012 95.2017 79.7356 100.946 98.6667 104.111C109.188 105.87 120.922 106.844 131 102.556C151.087 94.0081 168.084 72.4506 181.333 55.8889C185.326 50.8977 196.889 40.0028 196.889 32.5556C196.889 27.8141 176.025 20.5125 173 19C160.559 12.7797 148.324 6.09978 135 2" stroke="black" stroke-width="3" stroke-linecap="round"/>
</svg>
